<svg width="501" height="266" viewBox="0 0 501 266" fill="none" xmlns="http://www.w3.org/2000/svg">
<path d="M389 70.009H388C383.123 52.8231 374.378 38.7428 357 31.9357C348.646 28.6633 330.297 25.5459 323.433 33.2374C319.337 37.8261 319.695 46.2741 320.09 52.009C321.579 73.6385 337.741 91.976 359 96.2011C369.889 98.3652 381.854 98.1364 388 88.009C389.429 93.9409 388.978 102.031 393.419 106.73C402.688 116.538 430.721 112.169 442 108.489C471.129 98.9853 495.895 73.0864 499.714 42.009C500.919 32.1991 502.881 12.4761 496.03 4.42794C491.904 -0.419564 482.754 0.0111532 477 0.00896103C458.719 0.00140197 444.341 2.33689 428 11.1316C405.58 23.198 394.762 46.6213 389 70.009ZM471 14.3091C494.923 12.0726 485.406 47.0831 478.51 60.009C464.946 85.4335 440.607 96.1126 413 96.553C394.107 96.8546 405.65 62.3613 409.865 53.009C421.246 27.7596 444.987 16.7411 471 14.3091ZM337.318 44.6124C349.489 38.6297 367.187 54.9736 370.906 65.009C372.269 68.6855 375.512 79.0292 370.682 81.4055C357.918 87.6852 341.523 71.2639 337.465 61.0089C336.02 57.3593 332.381 47.0392 337.318 44.6124ZM0 216.009V265.009C27.282 264.783 55.8333 265.764 83 263.179C96.8216 261.863 109.099 261.584 118.211 249.005C134.106 227.065 118.413 198.086 103.166 181.009C99.2789 176.656 81.109 162.369 83.3064 156.237C84.716 152.304 92.6212 152.5 96 152.179C109.119 150.929 122.821 152.009 136 152.009V230.009L136.603 261.691L148 264.009H177L187.972 262.406L189 250.009V218.009H190L217.246 251.009L229.09 263.406L260 264.009H330V236.009C338.292 236.009 356.572 232.547 363.61 237.037C370.166 241.22 373.348 256.868 375 264.009H436C433.871 249.594 426.703 234.803 422.003 221.009C408.959 182.724 392.103 143.357 383 104.009H270H239L225.174 105.037L214.28 119.009L190 155.009C186.725 143.929 189 129.55 189 118.009C189 114.694 190.351 107.377 187.397 105.037C184.779 102.963 179.122 104.009 176 104.009H146C115.474 104.009 83.3021 101.148 53 104.723C36.8556 106.628 23.9019 106.48 16.338 124.009C6.5841 146.613 19.1025 169.111 33.5795 186.009C38.8717 192.186 44.6913 197.88 50.0486 204.009C51.7419 205.946 55.07 208.848 53.8827 211.781C52.3149 215.653 44.4564 215.683 41.0001 215.92C27.4561 216.848 13.5769 216.009 0 216.009ZM344 144.009L364 202.009L321 201.009L334.947 163.009L344 144.009ZM248 146.009C250.856 155.418 278.228 150.41 287 153.009C283.396 168.588 277.21 183.78 272.344 199.009C270.886 203.574 270.117 212.228 265.722 214.981C250.036 224.81 236.163 207.32 228.117 197.009C225.269 193.36 220.058 188.899 219.566 184.024C219.179 180.185 223.323 176.88 225.33 173.994C231.333 165.358 238.468 150.839 248 146.009Z" fill="#0C0E09"/>
</svg>
