<svg width="501" height="266" viewBox="0 0 501 266" fill="none" xmlns="http://www.w3.org/2000/svg">
<path d="M389 70.0324H388C383.123 52.8466 374.378 38.7663 357 31.9591C348.646 28.6868 330.297 25.5693 323.433 33.2608C319.337 37.8496 319.695 46.2975 320.09 52.0324C321.579 73.6619 337.741 91.9995 359 96.2246C369.889 98.3887 381.854 98.1599 388 88.0324C389.429 93.9644 388.978 102.054 393.419 106.754C402.688 116.561 430.721 112.192 442 108.512C471.129 99.0087 495.895 73.1099 499.714 42.0324C500.919 32.2226 502.881 12.4995 496.03 4.45138C491.904 -0.396126 482.754 0.0345907 477 0.0323985C458.719 0.0248395 444.341 2.36033 428 11.1551C405.58 23.2215 394.762 46.6447 389 70.0324ZM471 14.3326C494.923 12.096 485.406 47.1065 478.51 60.0324C464.946 85.4569 440.607 96.136 413 96.5764C394.107 96.878 405.65 62.3847 409.865 53.0324C421.246 27.7831 444.987 16.7645 471 14.3326ZM337.318 44.6358C349.489 38.6531 367.187 54.997 370.906 65.0324C372.269 68.709 375.512 79.0526 370.682 81.429C357.918 87.7086 341.523 71.2873 337.465 61.0324C336.02 57.3827 332.381 47.0626 337.318 44.6358ZM0 216.032V265.032C27.282 264.806 55.8333 265.787 83 263.202C96.8216 261.887 109.099 261.607 118.211 249.029C134.106 227.088 118.413 198.109 103.166 181.032C99.2789 176.679 81.109 162.392 83.3064 156.261C84.716 152.328 92.6212 152.524 96 152.202C109.119 150.953 122.821 152.032 136 152.032V230.032L136.603 261.715L148 264.032H177L187.972 262.429L189 250.032V218.032H190L217.246 251.032L229.09 263.429L260 264.032H330V236.032C338.292 236.032 356.572 232.571 363.61 237.06C370.166 241.243 373.348 256.891 375 264.032H436C433.871 249.618 426.703 234.826 422.003 221.032C408.959 182.748 392.103 143.381 383 104.032H270H239L225.174 105.06L214.28 119.032L190 155.032C186.725 143.952 189 129.573 189 118.032C189 114.717 190.351 107.4 187.397 105.06C184.779 102.987 179.122 104.032 176 104.032H146C115.474 104.032 83.3021 101.172 53 104.747C36.8556 106.652 23.9019 106.504 16.338 124.032C6.5841 146.636 19.1025 169.135 33.5795 186.032C38.8717 192.21 44.6913 197.903 50.0486 204.032C51.7419 205.97 55.07 208.871 53.8827 211.804C52.3149 215.677 44.4564 215.706 41.0001 215.943C27.4561 216.871 13.5769 216.032 0 216.032ZM344 144.033L364 202.033L321 201.033L334.947 163.033L344 144.033ZM248 146.033C250.856 155.441 278.228 150.434 287 153.033C283.396 168.612 277.21 183.803 272.344 199.033C270.886 203.598 270.117 212.251 265.722 215.005C250.036 224.834 236.163 207.344 228.117 197.033C225.269 193.383 220.058 188.922 219.566 184.047C219.179 180.209 223.323 176.904 225.33 174.018C231.333 165.382 238.468 150.862 248 146.033Z" fill="#495338"/>
</svg>
