<svg width="198" height="60" viewBox="0 0 198 60" fill="none" xmlns="http://www.w3.org/2000/svg">
<path d="M75.52 44V18.24H79.88V44H75.52ZM84.9341 44V25.04H88.9341L89.1341 27.04C89.9874 26.3733 91.0007 25.8133 92.1741 25.36C93.3741 24.88 94.6941 24.64 96.1341 24.64C98.5874 24.64 100.374 25.2133 101.494 26.36C102.614 27.5067 103.174 29.2933 103.174 31.72V44H98.8541V31.92C98.8541 30.4533 98.5474 29.4267 97.9341 28.84C97.3474 28.2533 96.2274 27.96 94.5741 27.96C93.5874 27.96 92.6141 28.16 91.6541 28.56C90.7207 28.96 89.9341 29.48 89.2941 30.12V44H84.9341ZM115.299 44.4C113.272 44.4 111.752 43.8667 110.739 42.8C109.752 41.7067 109.259 40.2267 109.259 38.36V28.44H106.459V25.04H109.259V20.68L113.579 19.36V25.04H118.619L118.339 28.44H113.579V38.12C113.579 39.2133 113.832 39.9867 114.339 40.44C114.846 40.8667 115.672 41.08 116.819 41.08C117.539 41.08 118.299 40.9467 119.099 40.68V43.76C118.059 44.1867 116.792 44.4 115.299 44.4ZM132.034 44.4C128.727 44.4 126.167 43.5867 124.354 41.96C122.541 40.3333 121.634 37.84 121.634 34.48C121.634 31.44 122.407 29.04 123.954 27.28C125.501 25.52 127.847 24.64 130.994 24.64C133.874 24.64 136.034 25.4 137.474 26.92C138.941 28.4133 139.674 30.3467 139.674 32.72V36.24H125.794C126.007 38.08 126.674 39.3467 127.794 40.04C128.914 40.7333 130.621 41.08 132.914 41.08C133.874 41.08 134.861 40.9867 135.874 40.8C136.887 40.6133 137.767 40.3733 138.514 40.08V43.28C137.661 43.6533 136.674 43.9333 135.554 44.12C134.461 44.3067 133.287 44.4 132.034 44.4ZM125.794 33.4H135.834V32.08C135.834 30.7733 135.474 29.76 134.754 29.04C134.034 28.2933 132.821 27.92 131.114 27.92C129.087 27.92 127.687 28.36 126.914 29.24C126.167 30.12 125.794 31.5067 125.794 33.4ZM151.598 51.04C150.185 51.04 148.772 50.9467 147.358 50.76C145.945 50.6 144.745 50.3467 143.758 50V46.64C144.825 46.9867 146.052 47.2533 147.438 47.44C148.825 47.6267 150.145 47.72 151.398 47.72C153.318 47.72 154.718 47.6133 155.598 47.4C156.478 47.1867 156.918 46.7067 156.918 45.96C156.918 45.4 156.705 45 156.278 44.76C155.852 44.5467 155.038 44.44 153.838 44.44H148.718C145.278 44.44 143.558 43.2267 143.558 40.8C143.558 40.0267 143.785 39.3067 144.238 38.64C144.692 37.9733 145.412 37.4667 146.398 37.12C145.305 36.5867 144.492 35.8533 143.958 34.92C143.452 33.9867 143.198 32.8667 143.198 31.56C143.198 29.1333 143.918 27.3733 145.358 26.28C146.825 25.1867 149.012 24.64 151.918 24.64C152.532 24.64 153.172 24.6933 153.838 24.8C154.505 24.88 155.025 24.96 155.398 25.04H162.358L162.238 27.88H159.038C159.545 28.3067 159.918 28.84 160.158 29.48C160.398 30.12 160.518 30.8133 160.518 31.56C160.518 33.5867 159.905 35.1867 158.678 36.36C157.452 37.5067 155.598 38.08 153.118 38.08C152.692 38.08 152.292 38.0667 151.918 38.04C151.572 37.9867 151.185 37.9333 150.758 37.88C149.958 37.96 149.238 38.1733 148.598 38.52C147.958 38.8667 147.638 39.3333 147.638 39.92C147.638 40.32 147.798 40.6133 148.118 40.8C148.438 40.96 148.972 41.04 149.718 41.04H155.038C156.932 41.04 158.385 41.4533 159.398 42.28C160.438 43.08 160.958 44.2533 160.958 45.8C160.958 47.6667 160.145 49 158.518 49.8C156.918 50.6267 154.612 51.04 151.598 51.04ZM151.918 35.32C153.652 35.32 154.852 35.0267 155.518 34.44C156.212 33.8533 156.558 32.8533 156.558 31.44C156.558 30.0267 156.212 29 155.518 28.36C154.852 27.72 153.652 27.4 151.918 27.4C150.292 27.4 149.105 27.7067 148.358 28.32C147.612 28.9333 147.238 29.9733 147.238 31.44C147.238 32.8 147.585 33.7867 148.278 34.4C148.998 35.0133 150.212 35.32 151.918 35.32ZM165.051 44V25.04H169.051L169.291 27.24C170.198 26.6533 171.278 26.12 172.531 25.64C173.785 25.16 175.025 24.8267 176.251 24.64V27.96C175.505 28.0933 174.691 28.2933 173.811 28.56C172.958 28.8 172.145 29.08 171.371 29.4C170.598 29.6933 169.945 30 169.411 30.32V44H165.051ZM184.135 44.4C182.935 44.4 181.815 44.1867 180.775 43.76C179.762 43.3333 178.949 42.6933 178.335 41.84C177.722 40.96 177.415 39.88 177.415 38.6C177.415 36.7867 178.029 35.3333 179.255 34.24C180.509 33.12 182.429 32.56 185.015 32.56H191.095V31.72C191.095 30.8133 190.949 30.0933 190.655 29.56C190.389 29.0267 189.882 28.64 189.135 28.4C188.415 28.16 187.349 28.04 185.935 28.04C183.695 28.04 181.602 28.3733 179.655 29.04V25.8C180.509 25.4533 181.549 25.1733 182.775 24.96C184.002 24.7467 185.322 24.64 186.735 24.64C189.509 24.64 191.615 25.2 193.055 26.32C194.522 27.44 195.255 29.2667 195.255 31.8V44H191.535L191.255 42.08C190.482 42.8267 189.522 43.4 188.375 43.8C187.255 44.2 185.842 44.4 184.135 44.4ZM185.295 41.28C186.602 41.28 187.735 41.0667 188.695 40.64C189.682 40.1867 190.482 39.5867 191.095 38.84V35.52H185.095C183.815 35.52 182.882 35.7733 182.295 36.28C181.735 36.76 181.455 37.5067 181.455 38.52C181.455 39.5067 181.789 40.2133 182.455 40.64C183.122 41.0667 184.069 41.28 185.295 41.28Z" fill="white"/>
<rect y="30.1421" width="35.5564" height="8.00018" transform="rotate(-45 0 30.1421)" fill="#67C5A5"/>
<rect x="18.228" y="30.7707" width="23.1116" height="8.00018" transform="rotate(-45 18.228 30.7707)" fill="#67C5A5"/>
<rect x="9.42834" y="39.5704" width="8.00018" height="8.00018" transform="rotate(-45 9.42834 39.5704)" fill="#67C5A5"/>
<rect x="19.4851" y="49.6273" width="35.5564" height="8.00018" transform="rotate(-45 19.4851 49.6273)" fill="#67C5A5"/>
</svg>
