<svg width="120" height="33" viewBox="0 0 120 33" fill="none" xmlns="http://www.w3.org/2000/svg">
<path d="M-1.94907e-05 25.76V7.62939e-06H4.35998V25.76H-1.94907e-05ZM9.41404 25.76V6.80001H13.414L13.614 8.80001C14.4674 8.13334 15.4807 7.57334 16.654 7.12001C17.854 6.64001 19.174 6.40001 20.614 6.40001C23.0674 6.40001 24.854 6.97334 25.974 8.12001C27.094 9.26668 27.654 11.0533 27.654 13.48V25.76H23.334V13.68C23.334 12.2133 23.0274 11.1867 22.414 10.6C21.8274 10.0133 20.7074 9.72001 19.054 9.72001C18.0674 9.72001 17.094 9.92001 16.134 10.32C15.2007 10.72 14.414 11.24 13.774 11.88V25.76H9.41404ZM39.779 26.16C37.7524 26.16 36.2324 25.6267 35.219 24.56C34.2324 23.4667 33.739 21.9867 33.739 20.12V10.2H30.939V6.80001H33.739V2.44001L38.059 1.12001V6.80001H43.099L42.819 10.2H38.059V19.88C38.059 20.9733 38.3124 21.7467 38.819 22.2C39.3257 22.6267 40.1524 22.84 41.299 22.84C42.019 22.84 42.779 22.7067 43.579 22.44V25.52C42.539 25.9467 41.2724 26.16 39.779 26.16ZM56.514 26.16C53.2074 26.16 50.6474 25.3467 48.834 23.72C47.0207 22.0933 46.114 19.6 46.114 16.24C46.114 13.2 46.8874 10.8 48.434 9.04001C49.9807 7.28001 52.3274 6.40001 55.474 6.40001C58.354 6.40001 60.514 7.16001 61.954 8.68001C63.4207 10.1733 64.154 12.1067 64.154 14.48V18H50.274C50.4874 19.84 51.154 21.1067 52.274 21.8C53.394 22.4933 55.1007 22.84 57.394 22.84C58.354 22.84 59.3407 22.7467 60.354 22.56C61.3674 22.3733 62.2474 22.1333 62.994 21.84V25.04C62.1407 25.4133 61.154 25.6933 60.034 25.88C58.9407 26.0667 57.7674 26.16 56.514 26.16ZM50.274 15.16H60.314V13.84C60.314 12.5333 59.954 11.52 59.234 10.8C58.514 10.0533 57.3007 9.68001 55.594 9.68001C53.5674 9.68001 52.1674 10.12 51.394 11C50.6474 11.88 50.274 13.2667 50.274 15.16ZM76.0784 32.8C74.6651 32.8 73.2518 32.7067 71.8384 32.52C70.4251 32.36 69.2251 32.1067 68.2384 31.76V28.4C69.3051 28.7467 70.5318 29.0133 71.9184 29.2C73.3051 29.3867 74.6251 29.48 75.8784 29.48C77.7984 29.48 79.1984 29.3733 80.0784 29.16C80.9584 28.9467 81.3984 28.4667 81.3984 27.72C81.3984 27.16 81.1851 26.76 80.7584 26.52C80.3318 26.3067 79.5184 26.2 78.3184 26.2H73.1984C69.7584 26.2 68.0384 24.9867 68.0384 22.56C68.0384 21.7867 68.2651 21.0667 68.7184 20.4C69.1718 19.7333 69.8918 19.2267 70.8784 18.88C69.7851 18.3467 68.9718 17.6133 68.4384 16.68C67.9318 15.7467 67.6784 14.6267 67.6784 13.32C67.6784 10.8933 68.3984 9.13334 69.8384 8.04001C71.3051 6.94668 73.4918 6.40001 76.3984 6.40001C77.0118 6.40001 77.6518 6.45334 78.3184 6.56001C78.9851 6.64001 79.5051 6.72001 79.8784 6.80001H86.8384L86.7184 9.64001H83.5184C84.0251 10.0667 84.3984 10.6 84.6384 11.24C84.8784 11.88 84.9984 12.5733 84.9984 13.32C84.9984 15.3467 84.3851 16.9467 83.1584 18.12C81.9318 19.2667 80.0784 19.84 77.5984 19.84C77.1718 19.84 76.7718 19.8267 76.3984 19.8C76.0518 19.7467 75.6651 19.6933 75.2384 19.64C74.4384 19.72 73.7184 19.9333 73.0784 20.28C72.4384 20.6267 72.1184 21.0933 72.1184 21.68C72.1184 22.08 72.2784 22.3733 72.5984 22.56C72.9184 22.72 73.4518 22.8 74.1984 22.8H79.5184C81.4118 22.8 82.8651 23.2133 83.8784 24.04C84.9184 24.84 85.4384 26.0133 85.4384 27.56C85.4384 29.4267 84.6251 30.76 82.9984 31.56C81.3984 32.3867 79.0918 32.8 76.0784 32.8ZM76.3984 17.08C78.1318 17.08 79.3318 16.7867 79.9984 16.2C80.6918 15.6133 81.0384 14.6133 81.0384 13.2C81.0384 11.7867 80.6918 10.76 79.9984 10.12C79.3318 9.48001 78.1318 9.16001 76.3984 9.16001C74.7718 9.16001 73.5851 9.46668 72.8384 10.08C72.0918 10.6933 71.7184 11.7333 71.7184 13.2C71.7184 14.56 72.0651 15.5467 72.7584 16.16C73.4784 16.7733 74.6918 17.08 76.3984 17.08ZM89.5312 25.76V6.80001H93.5312L93.7712 9.00001C94.6779 8.41334 95.7579 7.88001 97.0112 7.40001C98.2646 6.92001 99.5046 6.58668 100.731 6.40001V9.72001C99.9846 9.85334 99.1712 10.0533 98.2912 10.32C97.4379 10.56 96.6246 10.84 95.8512 11.16C95.0779 11.4533 94.4246 11.76 93.8912 12.08V25.76H89.5312ZM108.615 26.16C107.415 26.16 106.295 25.9467 105.255 25.52C104.242 25.0933 103.429 24.4533 102.815 23.6C102.202 22.72 101.895 21.64 101.895 20.36C101.895 18.5467 102.509 17.0933 103.735 16C104.989 14.88 106.909 14.32 109.495 14.32H115.575V13.48C115.575 12.5733 115.429 11.8533 115.135 11.32C114.869 10.7867 114.362 10.4 113.615 10.16C112.895 9.92001 111.829 9.80001 110.415 9.80001C108.175 9.80001 106.082 10.1333 104.135 10.8V7.56001C104.989 7.21334 106.029 6.93334 107.255 6.72001C108.482 6.50668 109.802 6.40001 111.215 6.40001C113.989 6.40001 116.095 6.96001 117.535 8.08001C119.002 9.20001 119.735 11.0267 119.735 13.56V25.76H116.015L115.735 23.84C114.962 24.5867 114.002 25.16 112.855 25.56C111.735 25.96 110.322 26.16 108.615 26.16ZM109.775 23.04C111.082 23.04 112.215 22.8267 113.175 22.4C114.162 21.9467 114.962 21.3467 115.575 20.6V17.28H109.575C108.295 17.28 107.362 17.5333 106.775 18.04C106.215 18.52 105.935 19.2667 105.935 20.28C105.935 21.2667 106.269 21.9733 106.935 22.4C107.602 22.8267 108.549 23.04 109.775 23.04Z" fill="white"/>
</svg>
