<svg width="501" height="266" viewBox="0 0 501 266" fill="none" xmlns="http://www.w3.org/2000/svg">
<path d="M389 70.0207H388C383.123 52.8348 374.378 38.7545 357 31.9474C348.646 28.6751 330.297 25.5576 323.433 33.2491C319.337 37.8378 319.695 46.2858 320.09 52.0207C321.579 73.6502 337.741 91.9878 359 96.2128C369.889 98.377 381.854 98.1482 388 88.0207C389.429 93.9526 388.978 102.043 393.419 106.742C402.688 116.55 430.721 112.18 442 108.501C471.129 98.997 495.895 73.0982 499.714 42.0207C500.919 32.2109 502.881 12.4878 496.03 4.43966C491.904 -0.407845 482.754 0.0228719 477 0.0206798C458.719 0.0131207 444.341 2.34861 428 11.1433C405.58 23.2097 394.762 46.633 389 70.0207ZM471 14.3208C494.923 12.0843 485.406 47.0948 478.51 60.0207C464.946 85.4452 440.607 96.1243 413 96.5647C394.107 96.8663 405.65 62.373 409.865 53.0207C421.246 27.7714 444.987 16.7528 471 14.3208ZM337.318 44.6241C349.489 38.6414 367.187 54.9853 370.906 65.0207C372.269 68.6972 375.512 79.0409 370.682 81.4173C357.918 87.6969 341.523 71.2756 337.465 61.0207C336.02 57.371 332.381 47.0509 337.318 44.6241ZM0 216.021V265.021C27.282 264.795 55.8333 265.776 83 263.19C96.8216 261.875 109.099 261.595 118.211 249.017C134.106 227.076 118.413 198.098 103.166 181.021C99.2789 176.667 81.109 162.38 83.3064 156.249C84.716 152.316 92.6212 152.512 96 152.19C109.119 150.941 122.821 152.021 136 152.021V230.021L136.603 261.703L148 264.021H177L187.972 262.417L189 250.021V218.021H190L217.246 251.021L229.09 263.417L260 264.021H330V236.021C338.292 236.021 356.572 232.559 363.61 237.049C370.166 241.231 373.348 256.88 375 264.021H436C433.871 249.606 426.703 234.814 422.003 221.021C408.959 182.736 392.103 143.369 383 104.021H270H239L225.174 105.049L214.28 119.021L190 155.021C186.725 143.94 189 129.561 189 118.021C189 114.705 190.351 107.388 187.397 105.049C184.779 102.975 179.122 104.021 176 104.021H146C115.474 104.021 83.3021 101.16 53 104.735C36.8556 106.64 23.9019 106.492 16.338 124.021C6.5841 146.624 19.1025 169.123 33.5795 186.021C38.8717 192.198 44.6913 197.891 50.0486 204.021C51.7419 205.958 55.07 208.86 53.8827 211.792C52.3149 215.665 44.4564 215.694 41.0001 215.931C27.4561 216.86 13.5769 216.021 0 216.021ZM344 144.021L364 202.021L321 201.021L334.947 163.021L344 144.021ZM248 146.021C250.856 155.429 278.228 150.422 287 153.021C283.396 168.6 277.21 183.791 272.344 199.021C270.886 203.586 270.117 212.239 265.722 214.993C250.036 224.822 236.163 207.332 228.117 197.021C225.269 193.372 220.058 188.91 219.566 184.035C219.179 180.197 223.323 176.892 225.33 174.006C231.333 165.37 238.468 150.85 248 146.021Z" fill="white"/>
</svg>
